<?xml version="1.0" encoding="utf-8"?>
<!DOCTYPE svg PUBLIC "-//W3C//DTD SVG 1.1//EN" "http://www.w3.org/Graphics/SVG/1.1/DTD/svg11.dtd">
<svg version="1.1" id="Ebene_1" xmlns="http://www.w3.org/2000/svg" xmlns:xlink="http://www.w3.org/1999/xlink" x="0px" y="0px"
	 width="64px" height="64px" viewBox="0 0 64 64" enable-background="new 0 0 64 64" xml:space="preserve">
<g>
	<path d="M12.535,12.534c2.031-2.031-1.619-4.817,0.988-6.666c11.036-7.824,25.918-7.824,36.955,0
		c2.717,1.926-1.017,4.662,0.987,6.666c2.005,2.005,4.741-1.729,6.667,0.988c7.823,11.036,7.823,25.919,0.001,36.955
		c-1.926,2.718-4.663-1.016-6.668,0.988c-2.004,2.004,1.729,4.741-0.987,6.667c-11.037,7.823-25.919,7.823-36.956,0
		c-2.521-1.788,1.017-4.662-0.987-6.667C10.531,49.462,7.656,53,5.868,50.478C-1.955,39.441-1.955,24.56,5.867,13.523
		C7.717,10.915,10.503,14.566,12.535,12.534z"/>
	<g>
		<polygon fill="#FFFFFF" points="50.32,27.219 48.416,30.717 46.513,27.219 43.494,27.219 43.494,27.401 47.062,33.198 
			47.062,36.809 49.77,36.809 49.77,33.184 53.338,27.401 53.338,27.219 		"/>
		<polygon fill="#FFFFFF" points="33.396,36.809 41.209,36.809 41.209,34.453 35.978,34.453 35.978,33.058 40.18,33.058 
			40.18,30.844 35.978,30.844 35.978,29.574 41.209,29.574 41.209,27.219 33.396,27.219 		"/>
		<path fill="#FFFFFF" d="M29.758,30.434c0-2.157-1.467-3.215-3.568-3.215h-4.851v9.59h2.707v-3.356h0.748l2.708,3.356h2.792V36.23
			l-2.595-2.99C28.926,32.817,29.758,31.773,29.758,30.434z M25.937,31.52h-1.891v-1.961h1.891c0.663,0,1.029,0.438,1.029,0.988
			C26.966,31.083,26.6,31.52,25.937,31.52z"/>
		<polygon fill="#FFFFFF" points="10.663,36.809 13.243,36.809 13.243,33.876 17.433,33.876 17.433,31.52 13.243,31.52 
			13.243,29.574 18.194,29.574 18.194,27.219 10.663,27.219 		"/>
	</g>
	<g>
		<path fill="#FFFFFF" d="M15.895,20.146c0.247-0.342,0.287-0.679,0.278-0.959l0.72,0.045c0.05,0.471-0.061,0.949-0.383,1.393
			c-0.604,0.834-1.674,1.016-2.483,0.428c-0.81-0.587-0.97-1.659-0.365-2.494c0.321-0.443,0.742-0.697,1.205-0.797l0.265,0.671
			c-0.268,0.079-0.576,0.222-0.824,0.563c-0.339,0.469-0.209,1.034,0.23,1.354C14.977,20.668,15.555,20.615,15.895,20.146z"/>
		<path fill="#FFFFFF" d="M19.059,15.965l-1.223,1.053l0.889,1.031l-0.64,0.551l-2.23-2.59l0.641-0.551l0.862,1.002l1.223-1.053
			l-0.862-1.001l0.64-0.551l2.229,2.59l-0.64,0.551L19.059,15.965z"/>
		<path fill="#FFFFFF" d="M21.062,12.194l0.886-0.456l2.713,2.449l-0.76,0.391l-0.493-0.453l-1.274,0.656l0.078,0.666l-0.76,0.393
			L21.062,12.194z M22.039,14.135l0.902-0.465l-1.055-0.962L22.039,14.135z"/>
		<path fill="#FFFFFF" d="M28.166,11.093l-0.731,1.434l-0.143,0.032l-1.272-0.979l0.461,2.039l-0.823,0.187l-0.755-3.333l0.711-0.16
			l1.502,1.123l0.87-1.66l0.711-0.162l0.755,3.334l-0.823,0.186L28.166,11.093z"/>
		<path fill="#FFFFFF" d="M30.995,9.46l1.699,0.041c0.679,0.016,1.252,0.428,1.231,1.297c-0.019,0.779-0.613,1.232-1.292,1.217
			l-0.854-0.021l-0.022,0.905l-0.844-0.021L30.995,9.46z M31.822,10.214l-0.025,1.046l0.724,0.018
			c0.292,0.007,0.523-0.194,0.53-0.506c0.008-0.331-0.213-0.532-0.505-0.54L31.822,10.214z"/>
		<path fill="#FFFFFF" d="M36.596,9.997l0.967,0.232l0.456,3.626l-0.831-0.2L37.11,12.99l-1.394-0.335l-0.376,0.555l-0.831-0.199
			L36.596,9.997z M36.067,12.104l0.987,0.237l-0.171-1.416L36.067,12.104z"/>
		<path fill="#FFFFFF" d="M41.899,15.22c-0.397,0.089-1.063,0.005-1.532-0.228c-0.905-0.448-1.34-1.394-0.851-2.38
			c0.494-0.995,1.509-1.221,2.415-0.771c0.495,0.245,0.813,0.61,0.999,1.006l-0.631,0.4c-0.141-0.295-0.364-0.534-0.701-0.702
			c-0.491-0.243-1.023-0.108-1.303,0.454c-0.275,0.554-0.06,1.059,0.467,1.32c0.198,0.099,0.421,0.147,0.619,0.144l0.224-0.45
			l-0.734-0.363l0.286-0.577l1.45,0.72L41.899,15.22z"/>
		<path fill="#FFFFFF" d="M44.8,15.281l-1.337,1.588l-0.646-0.545l2.202-2.614l0.562,0.474l-0.019,2.697l1.337-1.588l0.646,0.545
			l-2.202,2.614l-0.562-0.474L44.8,15.281z"/>
		<path fill="#FFFFFF" d="M46.325,19.555l2.74-2.043l1.641,2.199l-0.588,0.439l-1.157-1.552l-0.472,0.352l0.938,1.257l-0.568,0.424
			l-0.938-1.257l-0.523,0.391l1.157,1.552l-0.588,0.438L46.325,19.555z"/>
	</g>
	<g>
		<path fill="#FFFFFF" d="M21.686,48.122l0.719,0.443l-1.793,2.909l-0.719-0.443L21.686,48.122z"/>
		<path fill="#FFFFFF" d="M26.007,51.622l-1.396,0.802l-0.137-0.051l-0.532-1.516l-0.726,1.961l-0.792-0.293l1.187-3.206
			l0.684,0.253l0.646,1.762l1.636-0.917l0.684,0.253l-1.187,3.206l-0.792-0.293L26.007,51.622z"/>
		<path fill="#FFFFFF" d="M28.603,50.914l1.688,0.188c0.675,0.075,1.21,0.535,1.113,1.399c-0.087,0.773-0.718,1.174-1.393,1.099
			l-0.849-0.096l-0.101,0.899l-0.84-0.094L28.603,50.914z M29.36,51.737l-0.116,1.039l0.72,0.08
			c0.289,0.032,0.537-0.147,0.571-0.457c0.037-0.329-0.166-0.55-0.455-0.582L29.36,51.737z"/>
		<path fill="#FFFFFF" d="M34.194,51.02c1.005-0.109,1.836,0.559,1.945,1.562c0.108,0.995-0.56,1.826-1.563,1.936
			c-0.995,0.108-1.826-0.56-1.935-1.555C32.532,51.959,33.2,51.127,34.194,51.02z M34.49,53.728c0.549-0.06,0.879-0.516,0.82-1.055
			c-0.061-0.55-0.479-0.919-1.029-0.859c-0.534,0.059-0.88,0.511-0.82,1.061C33.52,53.413,33.955,53.786,34.49,53.728z"/>
		<path fill="#FFFFFF" d="M37.094,50.581l1.533-0.536c0.749-0.262,1.362-0.093,1.616,0.634c0.167,0.479-0.024,0.951-0.426,1.235
			l1.303,0.71l0.053,0.152l-0.849,0.297l-1.383-0.801l-0.322,0.113l0.399,1.144l-0.797,0.278L37.094,50.581z M38.133,50.995
			l0.279,0.797l0.721-0.252c0.262-0.091,0.376-0.312,0.293-0.55c-0.087-0.246-0.311-0.339-0.571-0.247L38.133,50.995z"/>
		<path fill="#FFFFFF" d="M42.728,48.858l1.381,2.296l-0.724,0.436l-1.381-2.296l-0.9,0.541l-0.381-0.633l2.499-1.503l0.38,0.634
			L42.728,48.858z"/>
	</g>
</g>
</svg>
